HIERARCHY
ROOT Hips
{
 OFFSET 0.000000 0.000000 0.000000
 CHANNELS 6 Xposition Yposition Zposition Yrotation Xrotation Zrotation
 JOINT Chest
 {
  OFFSET 0.000000 9.585900 0.002600
  CHANNELS 3 Yrotation Xrotation Zrotation
  JOINT Chest2
  {
   OFFSET 0.000000 9.601200 -0.005300
   CHANNELS 3 Yrotation Xrotation Zrotation
   JOINT Chest3
   {
    OFFSET 0.000000 9.561800 0.000000
    CHANNELS 3 Yrotation Xrotation Zrotation
    JOINT Chest4
    {
     OFFSET 0.000000 9.552100 0.000000
     CHANNELS 3 Yrotation Xrotation Zrotation
     JOINT Neck
     {
      OFFSET 0.000000 14.453000 0.000000
      CHANNELS 3 Yrotation Xrotation Zrotation
      JOINT Head
      {
       OFFSET 0.000000 8.936500 -0.011300
       CHANNELS 3 Yrotation Xrotation Zrotation
       End Site
       {
        OFFSET 0.000000 17.073600 -0.006000
       }
      }
     }
     JOINT RightCollar
     {
      OFFSET -2.921100 9.558500 0.000000
      CHANNELS 3 Yrotation Xrotation Zrotation
      JOINT RightShoulder
      {
       OFFSET -13.519700 0.000000 0.000000
       CHANNELS 3 Yrotation Xrotation Zrotation
       JOINT RightElbow
       {
        OFFSET 0.000000 -29.696600 0.000000
        CHANNELS 3 Yrotation Xrotation Zrotation
        JOINT RightWrist
        {
         OFFSET 0.000000 -24.004700 0.000000
         CHANNELS 3 Yrotation Xrotation Zrotation
         End Site
         {
          OFFSET 0.000000 -17.728500 0.000000
         }
        }
       }
      }
     }
     JOINT LeftCollar
     {
      OFFSET 2.921100 9.558500 0.000000
      CHANNELS 3 Yrotation Xrotation Zrotation
      JOINT LeftShoulder
      {
       OFFSET 13.519700 0.000000 0.000000
       CHANNELS 3 Yrotation Xrotation Zrotation
       JOINT LeftElbow
       {
        OFFSET 0.000000 -29.696600 0.000000
        CHANNELS 3 Yrotation Xrotation Zrotation
        JOINT LeftWrist
        {
         OFFSET 0.000000 -24.004700 0.000000
         CHANNELS 3 Yrotation Xrotation Zrotation
         End Site
         {
          OFFSET 0.000000 -17.728500 0.000000
         }
        }
       }
      }
     }
    }
   }
  }
 }
 JOINT RightHip
 {
  OFFSET -7.771700 -0.012900 -0.001300
  CHANNELS 3 Yrotation Xrotation Zrotation
  JOINT RightKnee
  {
   OFFSET 0.000000 -40.869800 0.001200
   CHANNELS 3 Yrotation Xrotation Zrotation
   JOINT RightAnkle
   {
    OFFSET 0.000000 -39.717900 0.002100
    CHANNELS 3 Yrotation Xrotation Zrotation
    JOINT RightToe
    {
     OFFSET 0.000000 -4.965400 11.033500
     CHANNELS 3 Yrotation Xrotation Zrotation
     End Site
     {
      OFFSET 0.000000 -1.423100 5.872300
     }
    }
   }
  }
 }
 JOINT LeftHip
 {
  OFFSET 7.771700 -0.012900 -0.001300
  CHANNELS 3 Yrotation Xrotation Zrotation
  JOINT LeftKnee
  {
   OFFSET 0.000000 -40.869800 0.001200
   CHANNELS 3 Yrotation Xrotation Zrotation
   JOINT LeftAnkle
   {
    OFFSET 0.000000 -39.717900 0.002100
    CHANNELS 3 Yrotation Xrotation Zrotation
    JOINT LeftToe
    {
     OFFSET 0.000000 -4.965400 11.033500
     CHANNELS 3 Yrotation Xrotation Zrotation
     End Site
     {
      OFFSET 0.000000 -1.423100 5.872300
     }
    }
   }
  }
 }
}
MOTION
Frames: 13
Frame Time: 0.008333
-15.587177 58.243277 67.120244 174.216660 -44.271876 -0.980961 4.462503 23.862280 7.391206 0.424144 3.687507 0.921666 0.738143 6.109882 1.484132 3.110876 19.840298 5.378670 -3.412646 20.384576 -4.107333 -4.994774 2.008667 -6.463616 3.897804 -1.495566 -13.080329 7.286232 -34.414238 -4.671864 143.250912 -27.821397 -162.907810 23.334917 -3.710298 -39.716807 -3.069502 -4.011624 10.711530 22.432430 -10.415386 -11.065025 -139.181295 -20.745022 158.864935 -17.521177 -9.993916 33.547146 14.693408 -27.156028 -3.623181 -6.556647 65.907467 -5.251386 3.498122 9.500893 9.864451 0.013869 0.108432 0.009260 -4.330961 -30.908743 1.203514 28.560102 58.310617 27.761275 -9.494795 29.018919 -1.679662 -0.896712 -13.978287 -2.360352
-15.600602 58.243215 67.117935 174.233472 -44.243743 -0.978761 4.463543 23.898595 7.373699 0.436493 3.760879 0.921706 0.739307 6.072158 1.489110 3.132266 19.868802 5.382067 -3.390122 20.369340 -4.064768 -4.965958 1.981251 -6.392587 3.834654 -1.621370 -13.068259 7.333147 -34.429183 -4.685569 143.194330 -27.902507 -162.861222 23.297189 -3.663150 -39.594709 -3.114978 -4.141838 10.661712 22.278385 -10.480338 -11.090171 -139.145821 -20.781915 158.796536 -17.504947 -10.059474 33.556230 14.657294 -27.173734 -3.644660 -6.535548 65.897516 -5.238393 3.500415 9.481453 9.843938 0.017264 0.125141 0.011855 -4.313883 -30.933176 1.144584 28.505965 58.299508 27.739026 -9.454310 29.053759 -1.671406 -0.897837 -14.037957 -2.362917
-15.619121 58.240569 67.119258 174.264813 -44.193265 -0.961728 4.438532 23.898289 7.326179 0.447446 3.810731 0.919421 0.743522 6.073083 1.493316 3.153615 19.896748 5.384575 -3.368848 20.348383 -4.023630 -4.938865 1.943108 -6.323768 3.789261 -1.750182 -13.058592 7.359370 -34.428826 -4.691473 143.134264 -27.977708 -162.812281 23.269312 -3.611434 -39.469083 -3.150595 -4.271888 10.648596 22.148365 -10.527951 -11.148648 -139.134606 -20.812370 158.758745 -17.490943 -10.117556 33.578081 14.611397 -27.202747 -3.684659 -6.480849 65.878917 -5.215517 3.466668 9.449571 9.815453 0.038939 0.160529 0.024778 -4.307050 -30.984980 1.079192 28.467211 58.288616 27.718209 -9.542877 29.080167 -1.770937 -0.810448 -14.084151 -2.316191
-15.631242 58.240143 67.120477 174.282993 -44.162416 -0.973018 4.429178 23.883165 7.321569 0.457758 3.869561 0.912274 0.749933 6.092308 1.495351 3.170918 19.922674 5.384808 -3.345700 20.323412 -3.985467 -4.907414 1.897430 -6.260804 3.749421 -1.871564 -13.048135 7.335925 -34.407476 -4.682945 143.158361 -28.002157 -162.819236 23.241897 -3.523503 -39.312500 -3.180128 -4.394418 10.636327 22.043166 -10.565305 -11.203068 -139.141380 -20.834470 158.746647 -17.481742 -10.171449 33.601015 14.592208 -27.227716 -3.696463 -6.472610 65.867180 -5.202779 3.458054 9.444858 9.797066 0.043904 0.164829 0.028772 -4.315042 -31.016365 1.056824 28.421418 58.276055 27.688806 -9.557051 29.147454 -1.813222 -0.779222 -14.146667 -2.293008
-15.645527 58.240786 67.121459 174.280287 -44.143876 -0.952380 4.452581 23.968215 7.290912 0.453872 3.833020 0.921300 0.754555 6.108622 1.496310 3.182579 19.945344 5.382141 -3.319839 20.297360 -3.949714 -4.870244 1.849919 -6.203066 3.651070 -1.977700 -13.038195 7.354284 -34.400847 -4.673701 143.186314 -28.085412 -162.806554 23.199410 -3.486247 -39.211640 -3.205708 -4.507594 10.600219 21.959495 -10.596138 -11.224252 -139.166504 -20.849273 158.753183 -17.474922 -10.219247 33.616866 14.603186 -27.239890 -3.728429 -6.468492 65.858679 -5.190827 3.451578 9.448611 9.783212 0.048286 0.160283 0.031673 -4.307067 -31.056402 0.978064 28.444858 58.258362 27.738569 -9.481205 29.297756 -1.781322 -0.820441 -14.284214 -2.305805
-15.655752 58.240341 67.124912 174.311174 -44.119374 -0.972778 4.445978 24.009194 7.278645 0.454176 3.827499 0.924273 0.757869 6.121946 1.496317 3.190418 19.964377 5.377375 -3.292574 20.271549 -3.915910 -4.829850 1.802937 -6.149415 3.577623 -2.073974 -13.029493 7.359148 -34.391211 -4.666811 143.225686 -28.159287 -162.796517 23.166054 -3.445833 -39.127419 -3.233094 -4.608564 10.571064 21.933474 -10.610893 -11.206123 -139.250091 -20.887948 158.795357 -17.465269 -10.258631 33.627189 14.581287 -27.256536 -3.738785 -6.457148 65.844919 -5.174873 3.450517 9.439281 9.777895 0.044045 0.166885 0.029091 -4.338762 -31.099109 0.953674 28.420142 58.256357 27.725257 -9.462411 29.421097 -1.794889 -0.806349 -14.405864 -2.300361
-15.662289 58.239407 67.129836 174.334688 -44.096089 -1.000074 4.444807 24.032192 7.280045 0.455976 3.834676 0.924125 0.760638 6.132714 1.496001 3.193176 19.941266 5.380489 -3.269990 20.284294 -3.896094 -4.819186 1.754608 -6.122107 3.520002 -2.118612 -13.027653 7.369165 -34.386778 -4.664766 143.256268 -28.199916 -162.788148 23.141367 -3.394945 -39.045765 -3.260540 -4.665873 10.533538 21.914798 -10.616067 -11.184636 -139.333951 -20.922282 158.829292 -17.451225 -10.293661 33.633519 14.565461 -27.273854 -3.738705 -6.448631 65.827910 -5.151754 3.449554 9.425581 9.769642 0.041240 0.179815 0.026075 -4.372634 -31.144235 0.945932 28.412390 58.258788 27.727036 -9.448390 29.542156 -1.801391 -0.790235 -14.526975 -2.301675
-15.663856 58.238393 67.135673 174.345839 -44.078462 -1.036391 4.454682 24.035136 7.305349 0.459246 3.861580 0.916489 0.763553 6.141702 1.495681 3.196216 19.921969 5.385807 -3.248087 20.291767 -3.877687 -4.766234 1.712276 -6.059901 3.465260 -2.164343 -13.024911 7.407960 -34.389978 -4.662307 143.260915 -28.216316 -162.776727 23.128602 -3.357630 -38.982208 -3.282268 -4.738319 10.474136 21.857196 -10.620830 -11.154598 -139.372310 -20.937768 158.832234 -17.498621 -10.318415 33.632733 14.552635 -27.296524 -3.719562 -6.411496 65.814769 -5.093960 3.434275 9.436215 9.754674 0.041014 0.172879 0.024153 -4.408933 -31.187420 0.959824 28.453611 58.267834 27.772289 -9.437704 29.634716 -1.792623 -0.769714 -14.647366 -2.314374
-15.665427 58.235753 67.143099 174.360930 -44.054556 -1.063333 4.456008 24.032238 7.316442 0.459250 3.883392 0.909225 0.766311 6.149737 1.495225 3.210920 20.003652 5.364322 -3.217305 20.191248 -3.823312 -4.712175 1.684725 -5.995822 3.426406 -2.308198 -12.995599 7.411889 -34.378528 -4.680309 143.293490 -28.237803 -162.797368 23.117285 -3.350248 -38.977923 -3.286480 -4.875728 10.511145 21.814776 -10.636264 -11.184535 -139.409652 -20.964001 158.830999 -17.532391 -10.344297 33.632199 14.545563 -27.323273 -3.707824 -6.413535 65.799864 -5.082050 3.428138 9.444373 9.748007 0.041032 0.169401 0.022569 -4.437111 -31.225866 0.968314 28.388872 58.275430 27.723725 -9.429748 29.736939 -1.825125 -0.737587 -14.731227 -2.304496
-15.665091 58.230725 67.152975 174.369693 -44.017600 -1.086019 4.463103 24.032297 7.318862 0.455040 3.884208 0.911744 0.768122 6.157174 1.494473 3.214854 20.014513 5.359142 -3.197604 20.144676 -3.802231 -4.666743 1.689101 -5.941329 3.422356 -2.369386 -12.984359 7.405996 -34.370107 -4.730278 143.254596 -28.275892 -162.770408 23.083803 -3.294613 -38.876902 -3.299242 -4.943199 10.504052 21.798529 -10.653022 -11.186520 -139.434314 -20.998571 158.822155 -17.427281 -10.372794 33.615514 14.541475 -27.364330 -3.696331 -6.432043 65.783483 -5.088077 3.426456 9.445727 9.739699 0.042574 0.165912 0.021551 -4.463647 -31.277786 0.978608 28.305270 58.282550 27.661313 -9.415825 29.846697 -1.860234 -0.689193 -14.834766 -2.301548
-15.662761 58.226224 67.162077 174.397987 -43.992521 -1.122015 4.449055 24.040427 7.323451 0.454303 3.888491 0.910689 0.769130 6.164159 1.493533 3.216385 20.025074 5.353296 -3.168476 20.130675 -3.773330 -4.633400 1.679664 -5.890270 3.391342 -2.432725 -12.976178 7.437569 -34.373197 -4.761944 143.245064 -28.292799 -162.777954 23.068125 -3.271033 -38.828654 -3.298065 -5.010639 10.488164 21.787209 -10.665645 -11.177023 -139.434764 -21.011909 158.802666 -17.375257 -10.357339 33.590813 14.514075 -27.393432 -3.678161 -6.461441 65.768294 -5.108931 3.432977 9.451611 9.732611 0.038593 0.166983 0.019065 -4.521226 -31.330888 0.986483 28.270193 58.294742 27.638246 -9.382335 29.984875 -1.867967 -0.655904 -14.965097 -2.317601
-15.660590 58.216082 67.176521 174.490422 -43.925038 -1.194161 4.379233 24.006470 7.312548 0.457979 3.895404 0.911988 0.770712 6.159510 1.495244 3.216868 20.032725 5.348914 -3.146076 20.173108 -3.735676 -4.606399 1.637292 -5.849050 3.334228 -2.486278 -12.968339 7.489083 -34.379957 -4.780207 143.257448 -28.308240 -162.792983 23.107338 -3.259196 -38.767828 -3.293485 -5.055926 10.489810 21.784471 -10.674091 -11.179532 -139.441212 -21.061034 158.793051 -17.379891 -10.351890 33.577271 14.440748 -27.462892 -3.676786 -6.478825 65.756686 -5.127784 3.439839 9.453781 9.728637 0.032799 0.174245 0.015907 -4.668073 -31.453418 0.991142 28.201150 58.325876 27.580158 -9.273420 30.221289 -1.866928 -0.639033 -15.186823 -2.347013
-15.657736 58.209684 67.186554 174.519158 -43.897725 -1.214198 4.359901 24.041773 7.293436 0.460343 3.870440 0.920044 0.775251 6.133947 1.501357 3.211604 20.071676 5.339510 -3.125211 20.173865 -3.708399 -4.577007 1.628363 -5.803242 3.336838 -2.538007 -12.961522 7.482727 -34.381488 -4.790188 143.219759 -28.300990 -162.775640 23.111628 -3.256873 -38.739273 -3.294730 -5.118319 10.488318 21.794312 -10.667181 -11.176735 -139.445004 -21.106055 158.779970 -17.384460 -10.336661 33.565359 14.373740 -27.495087 -3.658884 -6.455009 65.745140 -5.134950 3.448639 9.457192 9.722552 0.025625 0.181302 0.011052 -4.709620 -31.497011 0.987914 28.072620 58.330404 27.478716 -9.265031 30.366827 -1.922934 -0.577511 -15.306893 -2.345045
